<svg xmlns="http://www.w3.org/2000/svg" xmlns:xlink="http://www.w3.org/1999/xlink" width="97" height="23" viewBox="0 0 97 23">
    <defs>
        <path id="ofmpvtsm5a" d="M14.27 0L14.27 2.829 9.789 2.829 9.789 21.722 4.35 21.722 4.35 2.849 0 2.849 0 0z"/>
        <path id="g7ari3tavc" d="M11.676 0L11.676 2.791 5.23 2.791 5.23 8.737 11.432 8.737 11.432 11.407 5.23 11.407 5.23 18.81 11.676 18.81 11.676 21.722 0 21.722 0 0z"/>
        <path id="vashqisone" d="M12.973 0L12.973 21.722 7.823 21.722 7.823 11.227 5.026 11.227 5.026 21.722 0 21.722 0 0.006 5.026 0.014 5.026 8.331 7.861 8.293 7.861 0z"/>
        <path id="toeyr6bd1g" d="M0 3.34C.722-.275 6.428-.11 9.334.083c5.517.675 4.895 5.124 4.895 5.124V8.74H8.71V3.617C8.48 2.465 7.425 2.506 7.425 2.506c-2.032-.12-1.825.953-1.825.953v15.927c.182 1.228 3.111 1.126 3.111-.023v-5.458l5.518.079.041 5.243C13.897 22.88 9.417 23 9.417 23l-4.646-.04C.083 22.444.083 19.664.083 19.664L0 3.34z"/>
        <path id="phgcyyo3hi" d="M0 0L5.189 0 5.189 21.722 0 21.722z"/>
        <path id="kjog5zfi1k" d="M4.839.096C8.133-.162 9.622.18 9.622.18c4.332.559 4.648 3.477 4.648 3.477v5.02l-5.46.044V3.744S8.765 2.8 7.366 2.67c-1.4-.13-1.76.9-1.76.9v14.892s-.451 1.803 1.353 1.803c1.648 0 1.754-.93 1.76-1.092v-5.002H6.374v-2.704h7.897v10.9l-2.978-.17c0-.515-.496-.903-.496-.903s-2.798 2.404-6.68 1.503C.237 21.896.1 19.365.1 19.365v-.015C.092 18.827-.122 4.157.1 3.315.326 2.455 1.544.353 4.84.095z"/>
        <path id="k8b6ybv3tm" d="M4.838.096C8.133-.162 9.622.18 9.622.18c4.332.559 4.648 3.476 4.648 3.476v5.022l-5.46.043V3.735c-.01-.094-.123-.943-1.444-1.064-1.4-.13-1.76.9-1.76.9v14.893s-.452 1.802 1.353 1.802c1.649 0 1.754-.93 1.76-1.092v-5.002H6.373v-2.704h7.897v10.9l-2.978-.172c0-.513-.497-.9-.497-.9s-2.797 2.403-6.678 1.502C.235 21.898.1 19.365.1 19.365v-.015C.095 19.027.012 13.297.001 8.77V7.233c.004-2.077.03-3.658.1-3.918.225-.86 1.444-2.962 4.737-3.22z"/>
    </defs>
    <g fill="none" fill-rule="evenodd">
        <g>
            <g>
                <g transform="translate(-113 -17) translate(113 17)">
                    <mask id="q9y17tntjb" fill="#fff">
                        <use xlink:href="#ofmpvtsm5a"/>
                    </mask>
                    <path fill="#1A497D" d="M-6.486 -6.389L20.757 -6.389 20.757 28.111 -6.486 28.111z" mask="url(#q9y17tntjb)"/>
                </g>
                <g transform="translate(-113 -17) translate(113 17) translate(15.568)">
                    <mask id="yaw8q6n3fd" fill="#fff">
                        <use xlink:href="#g7ari3tavc"/>
                    </mask>
                    <path fill="#1A497D" d="M-6.486 -6.389L18.162 -6.389 18.162 28.111 -6.486 28.111z" mask="url(#yaw8q6n3fd)"/>
                </g>
                <g transform="translate(-113 -17) translate(113 17) translate(45.405)">
                    <mask id="37oyrbqn1f" fill="#fff">
                        <use xlink:href="#vashqisone"/>
                    </mask>
                    <path fill="#1A497D" d="M-6.486 -6.389L19.459 -6.389 19.459 28.111 -6.486 28.111z" mask="url(#37oyrbqn1f)"/>
                </g>
                <g transform="translate(-113 -17) translate(113 17) translate(29.838)">
                    <mask id="w5vrxp52ah" fill="#fff">
                        <use xlink:href="#toeyr6bd1g"/>
                    </mask>
                    <path fill="#1A497D" d="M-6.486 -6.389L20.757 -6.389 20.757 29.389 -6.486 29.389z" mask="url(#w5vrxp52ah)"/>
                </g>
                <g transform="translate(-113 -17) translate(113 17) translate(75.243)">
                    <mask id="vm5l7namkj" fill="#fff">
                        <use xlink:href="#phgcyyo3hi"/>
                    </mask>
                    <path fill="#D7263D" d="M-6.486 -6.389L11.676 -6.389 11.676 28.111 -6.486 28.111z" mask="url(#vm5l7namkj)"/>
                </g>
                <g transform="translate(-113 -17) translate(113 17) translate(59.676)">
                    <mask id="t9nb2ngsnl" fill="#fff">
                        <use xlink:href="#kjog5zfi1k"/>
                    </mask>
                    <path fill="#D7263D" d="M-6.486 -6.389L20.757 -6.389 20.757 29.389 -6.486 29.389z" mask="url(#t9nb2ngsnl)"/>
                </g>
                <g transform="translate(-113 -17) translate(113 17) translate(81.73)">
                    <mask id="jel1b2ur6n" fill="#fff">
                        <use xlink:href="#k8b6ybv3tm"/>
                    </mask>
                    <path fill="#D7263D" d="M-6.486 -6.389L20.757 -6.389 20.757 29.389 -6.486 29.389z" mask="url(#jel1b2ur6n)"/>
                </g>
            </g>
        </g>
    </g>
</svg>
